/* XPM */
static char *result[] = {
/* columns rows colors chars-per-pixel */
"8 22 10 1 ",
"  c #301D27",
". c #3A232F",
"X c #7A3333",
"o c #614C2F",
"O c #523A42",
"+ c #BF7B3F",
"@ c #80715D",
"# c #A08C63",
"$ c #DBC244",
"% c None",
/* pixels */
"%%%%%%%%",
"%%%X%%%%",
"%%%X+%%%",
"%%%++X%%",
"%%X++X%%",
"%%++++%%",
"%X++$+X%",
"%X+$$+X%",
"oX+$$++o",
"o++$$$+o",
"o@++$++o",
"o@@+++@o",
"o@@@@@@o",
"O######O",
" ...... ",
" ...... ",
" ...... ",
" ...... ",
" ...... ",
" ...... ",
" ...... ",
"        "
};
