/* XPM */
static char *result[] = {
/* columns rows colors chars-per-pixel */
"16 22 14 1 ",
"  c None",
". c #2B121F",
"X c #421B2E",
"o c #56252F",
"O c #7A3333",
"+ c #AA6622",
"@ c #874040",
"# c #649154",
"$ c #CCAA44",
"% c #DBC244",
"& c #337799",
"* c #8BB4B8",
"= c #A3C197",
"- c None",
/* pixels */
"                ",
"                ",
"                ",
"                ",
"  +X        X+  ",
" @%o@@@@@@@@o%@ ",
" O+oOOoXXoOOo+O ",
" $$X$$X$$X$$X$$ ",
"  +o  X+$X  o+  ",
" .            . ",
" .  #=++$$%%  . ",
" . %##$%%+&*+ . ",
" .%$$++$$%&&$%. ",
" .............. ",
" oooooooooooooo ",
" oooooooooooooo ",
" XooooooooooooX ",
" XXXXXXXXXXXXXX ",
" XXXXXXXXXXXXXX ",
"                ",
"                ",
"                "
};
