/* XPM */
static char *_1616ff0d4ab427edc0727fe46fc3d568HckNhbwsfP40qhq[] = {
/* columns rows colors chars-per-pixel */
"16 22 7 1 ",
"  c None",
". c #1C1117",
"X c #35271F",
"o c #301D27",
"O c #422835",
"+ c #664729",
"@ c #523A42",
/* pixels */
"                ",
"                ",
"                ",
" OOOOOOOOOOOOOO ",
" OOOOOOOOOOOOOO ",
" OOOOOOOOOOOOOO ",
" OOOOOOOOOOOOOO ",
" OOO+oooooo+OOO ",
" Ooo+.++++o+ooO ",
" oo.+......+o.o ",
" .o.+.++++.+o.. ",
" ...X......Xo.. ",
" ...X.XXXX.X... ",
" @..o......o..@ ",
" O@@o.oooo.o@@O ",
" OOO@@@@@@@@OOO ",
" OOOOOOOOOOOOOO ",
" OOOOOOOOOOOOOO ",
" OOOOOOOOOOOOOO ",
" OOOOOOOOOOOOOO ",
" OOOOOOOOOOOOOO ",
"                "
};
