/* XPM */
static char *b7c7116d6c0b464cd86db2d3bf4647dfKP1no9Wqj6JBM1AV[] = {
/* columns rows colors chars-per-pixel */
"17 22 9 1 ",
"  c None",
". c #1C1117",
"X c #421B2E",
"o c #353561",
"O c #42426B",
"+ c #505078",
"@ c #BB5533",
"# c #CC7733",
"$ c #CCCCBE",
/* pixels */
"..            ...",
".$.          .$. ",
".$.          .$. ",
".$$.        .$$. ",
".$$..........$$. ",
".$.++++++++$$$$. ",
".$.+OOOOOOO$$$.. ",
" ..+OOOOOOOO$$.  ",
"  .+OOOOOOOOOo.  ",
"  .+...+...OOo.  ",
"  .+.X.+.X.OOo.  ",
"  .+.X.+.X.OOo.  ",
"  .+.#.+.@.OOo.  ",
"  .+.#...@.OOo.  ",
"  .+.####@.OOo.  ",
"   ..####@.....  ",
"    ..#@#@.Oo.   ",
"    .O....OOo.   ",
"    .oooooooo.   ",
"    .o......o.   ",
"    ...    ...   ",
"                ."
};
