/* XPM */
static char *result[] = {
/* columns rows colors chars-per-pixel */
"16 22 10 1 ",
"  c #301D27",
". c #3A232F",
"X c #7A3333",
"o c #614C2F",
"O c #523A42",
"+ c #BF7B3F",
"@ c #80715D",
"# c #A08C63",
"$ c #DBC244",
"% c #422835",
/* pixels */
"%%%%%%%%%%%%%%%%",
"%%%X%%%%%%%X%%%%",
"%%%X+%%%%%%X+%%%",
"%%%++X%%%%%++X%%",
"%%X++X%%%%X++X%%",
"%%++++%%%%++++%%",
"%X++$+X%%X++$+X%",
"%X+$$+X%%X+$$+X%",
"oX+$$++ooX+$$++o",
"o++$$$+oo++$$$+o",
"o@++$++oo@++$++o",
"o@@+++@oo@@+++@o",
"o@@@@@@oo@@@@@@o",
"O######OO######O",
" ......  ...... ",
" ......  ...... ",
" ......  ...... ",
" ......  ...... ",
" ......  ...... ",
" ......  ...... ",
" ......  ...... ",
"                "
};
